<svg width="38" height="39" viewBox="0 0 38 39" fill="none" xmlns="http://www.w3.org/2000/svg">
<path d="M18.7064 7.07636C17.3023 7.0853 15.9323 7.50994 14.7693 8.29672C13.6063 9.08349 12.7024 10.1971 12.1717 11.4971C11.641 12.7971 11.5072 14.2251 11.7873 15.601C12.0674 16.9769 12.7487 18.2391 13.7454 19.2281C14.7421 20.2172 16.0094 20.8888 17.3874 21.1584C18.7654 21.4279 20.1924 21.2832 21.4883 20.7425C22.7841 20.2019 23.8908 19.2895 24.6686 18.1205C25.4465 16.9515 25.8606 15.5783 25.8588 14.1742C25.8584 13.2376 25.6728 12.3103 25.3125 11.4458C24.9522 10.5812 24.4245 9.79652 23.7597 9.13679C23.0949 8.47706 22.3062 7.95537 21.4389 7.60175C20.5716 7.24813 19.643 7.06957 18.7064 7.07636ZM18.7438 19.7092C15.7213 19.7092 13.2119 17.1842 13.2275 14.1773C13.229 13.0847 13.5545 12.0171 14.1628 11.1095C14.7711 10.202 15.6348 9.49514 16.6448 9.07845C17.6548 8.66177 18.7657 8.55394 19.837 8.76861C20.9083 8.98327 21.8918 9.51078 22.6633 10.2844C23.4348 11.0581 23.9595 12.0431 24.1712 13.115C24.3828 14.1869 24.2718 15.2975 23.8523 16.3063C23.4328 17.3151 22.7235 18.1769 21.8142 18.7826C20.9049 19.3883 19.8364 19.7108 18.7438 19.7092Z" fill="white"/>
<path d="M31.6169 10.3685C30.9002 7.97366 29.5313 5.82544 27.6633 4.16426C25.7952 2.50308 23.5018 1.39448 21.0396 0.962515C20.6777 0.90013 20.3019 0.907929 19.9572 0.759766H19.8153C19.7576 0.817471 19.6827 0.789398 19.6156 0.797196C19.5486 0.804994 19.5034 0.808114 19.4597 0.759766H18.0404C17.9968 0.808114 17.9391 0.794077 17.8845 0.797196C17.8299 0.800315 17.7441 0.817471 17.6864 0.759766H17.4025C17.3854 0.839306 17.3214 0.828388 17.2653 0.834626C16.2952 0.952833 15.3395 1.16863 14.4128 1.47875C12.1037 2.27114 10.0537 3.67669 8.48222 5.54486C6.91075 7.41304 5.87704 9.67349 5.49178 12.0841C5.31861 13.0619 5.27613 14.0584 5.36545 15.0474C5.60442 17.4377 6.40958 19.7367 7.71423 21.7537C9.7698 24.926 14.3223 31.8912 16.4106 34.9855L18.7423 38.7598L21.456 34.435C23.3608 31.5528 25.2614 28.6685 27.1579 25.7822C28.3557 23.9497 29.6674 22.1842 30.6406 20.2113C31.4559 18.5876 31.9625 16.8265 32.1347 15.0178C32.264 13.4491 32.0882 11.8703 31.6169 10.3685ZM29.789 18.1339C29.355 19.3174 28.7789 20.4439 28.0734 21.4886C25.0707 26.0635 22.0585 30.6316 19.037 35.1929C18.7625 35.6093 18.736 35.6093 18.4537 35.182C15.4478 30.6217 12.4425 26.064 9.4376 21.5089C8.27569 19.7418 7.42726 17.8375 7.06699 15.7383C6.79273 14.1736 6.89158 12.5663 7.35551 11.047C8.68586 6.65667 11.5867 3.8634 16.0239 2.67809C16.9178 2.45739 17.8355 2.34791 18.7563 2.35213C21.1122 2.35715 23.4132 3.06411 25.3655 4.38278C27.3178 5.70145 28.8329 7.57199 29.7173 9.75562C30.2849 11.1416 30.5779 12.6248 30.5797 14.1225C30.5844 15.5122 30.246 16.8378 29.789 18.1339Z" fill="white"/>
</svg>
