<svg width="168" height="98" viewBox="0 0 168 98" fill="none" xmlns="http://www.w3.org/2000/svg">
<path d="M16.1552 16.6621H46.9602" stroke="#2B1F13" stroke-width="3.84" stroke-miterlimit="10"/>
<path d="M8.09863 38.0312H46.9603" stroke="#2B1F13" stroke-width="3.84" stroke-miterlimit="10"/>
<path d="M0.940125 59.4004H46.9602" stroke="#2B1F13" stroke-width="3.84" stroke-miterlimit="10"/>
<path d="M152.62 80.7509H161.378L165.351 59.5833C166.253 54.8021 165.857 49.8665 164.203 45.2906C162.638 40.9712 160.152 37.0444 156.916 33.783C153.68 30.5217 149.773 28.004 145.467 26.4051C140.791 24.6701 135.853 23.7488 130.866 23.6811L111.5 23.4072" stroke="#2B1F13" stroke-width="3.84" stroke-miterlimit="10"/>
<path d="M74.6233 80.7363H122.997" stroke="#2B1F13" stroke-width="3.84" stroke-miterlimit="10"/>
<path d="M45.2065 80.7363H28.0649H45.6293" stroke="#2B1F13" stroke-width="3.84" stroke-miterlimit="10"/>
<path d="M27.7336 2.44141H116.026L99.0289 80.7365H74.6232" stroke="#2B1F13" stroke-width="3.84" stroke-miterlimit="10"/>
<path d="M59.9122 95.4458C68.0367 95.4458 74.6228 88.8595 74.6228 80.7351C74.6228 72.6106 68.0367 66.0244 59.9122 66.0244C51.7877 66.0244 45.2015 72.6106 45.2015 80.7351C45.2015 88.8595 51.7877 95.4458 59.9122 95.4458Z" stroke="#2B1F13" stroke-width="3.84" stroke-miterlimit="10"/>
<path d="M138.38 95.4516C146.505 95.4516 153.091 88.8654 153.091 80.7409C153.091 72.6165 146.505 66.0303 138.38 66.0303C130.256 66.0303 123.67 72.6165 123.67 80.7409C123.67 88.8654 130.256 95.4516 138.38 95.4516Z" stroke="#2B1F13" stroke-width="3.84" stroke-miterlimit="10"/>
<path d="M27.7336 2.44141H116.026L99.0289 80.7365H74.6232" stroke="#2B1F13" stroke-width="3.84" stroke-miterlimit="10"/>
</svg>
