<svg width="62" height="58" viewBox="0 0 62 58" fill="none" xmlns="http://www.w3.org/2000/svg">
<path d="M35.4604 49.4783C35.2754 50.0415 35.0205 50.8112 34.6789 51.1645C34.5256 51.3228 34.3923 51.4094 34.3107 51.4461C34.274 51.3477 34.2507 51.0145 34.8005 50.0465C34.9355 49.8082 35.2288 49.4267 35.5203 49.29L35.4587 49.4766L35.4604 49.4783ZM26.6963 50.0481C27.2462 51.0162 27.2229 51.3494 27.1862 51.4477C27.1062 51.4111 26.9713 51.3244 26.8196 51.1661C26.4781 50.8129 26.2248 50.0415 26.0382 49.48L25.9766 49.2917C26.2681 49.4283 26.5631 49.8116 26.698 50.0481H26.6963Z" fill="white"/>
<path d="M33.0482 29.0192C33.2831 28.3744 33.508 27.7662 33.6197 27.1481C33.7613 26.3583 33.573 25.2603 33.0948 24.4839C32.9165 24.7155 32.7349 24.9437 32.56 25.1653C32.2551 25.5486 31.9152 25.8701 31.5853 26.18C31.4886 26.2733 31.3903 26.3683 31.2937 26.4616C31.1421 26.6099 30.9438 26.6832 30.7455 26.6832C30.5473 26.6832 30.3523 26.6099 30.2007 26.4616C30.1041 26.3683 30.0058 26.2733 29.9091 26.18C29.5792 25.8718 29.241 25.5486 28.9344 25.1653C28.7595 24.9437 28.5779 24.7155 28.3996 24.4839C27.9231 25.2603 27.7348 26.3583 27.8747 27.1481C27.9864 27.7662 28.2113 28.3744 28.4462 29.0192C28.6912 29.6806 28.9428 30.3621 29.081 31.0985C29.3126 32.3415 29.1544 33.6078 29.0044 34.8341C28.9744 35.0723 28.9444 35.3106 28.9178 35.5455C28.8611 36.0704 28.7661 36.5835 28.6762 37.0801C28.5279 37.8931 28.3879 38.6629 28.4013 39.4377C28.4212 40.4824 28.7278 41.4571 29.356 42.5117C29.7425 43.1632 30.239 43.9463 30.7472 44.4661C31.257 43.9463 31.7552 43.1632 32.1418 42.5117C32.7699 41.4604 33.0715 40.4824 33.0965 39.4377C33.1098 38.6646 32.9682 37.8931 32.8216 37.0801C32.7316 36.5835 32.6366 36.0687 32.58 35.5455C32.5533 35.3106 32.5233 35.0723 32.4933 34.8341C32.3417 33.6078 32.1801 32.3415 32.4167 31.0985C32.555 30.3621 32.8066 29.6806 33.0515 29.0192H33.0482Z" fill="white"/>
<path d="M37.4621 14.1353C37.6071 14.4102 37.9553 14.5885 38.3485 14.6601C38.0569 13.837 37.6704 13.2589 37.3971 13.1289C37.3238 13.3738 37.3505 13.9153 37.4605 14.1369L37.4621 14.1353Z" fill="white"/>
<path d="M24.0993 13.1306C23.8211 13.2689 23.4379 13.8454 23.1479 14.6584C23.5412 14.5885 23.8911 14.4102 24.031 14.1336C24.146 13.912 24.1726 13.3772 24.0977 13.1289L24.0993 13.1306Z" fill="white"/>
<path d="M30.7541 57.3443C31.5938 57.3443 32.4869 57.5492 33.24 57.1726C33.9348 56.8227 34.3113 56.068 34.6379 55.3615C35.3094 53.9236 35.9808 52.4857 36.6506 51.0478C36.3141 51.606 35.9692 52.1758 35.4543 52.5757C34.9412 52.9723 34.2114 53.1672 33.6266 52.8839C32.6119 52.4008 32.6319 50.9195 33.0917 49.8915C33.6299 48.7019 34.7012 47.6172 36.0042 47.6039C37.1255 46.5225 37.7037 44.9897 38.0236 43.4618C38.3401 41.9373 38.4301 40.3711 38.7517 38.8465C39.0566 37.4186 39.5648 36.0274 39.6447 34.5745C39.763 32.5151 39.0166 30.4124 39.5448 28.4214C39.9213 26.9901 40.9427 25.7039 40.8977 24.2227C40.8544 22.8114 39.8697 21.6534 39.2049 20.3905C39.0532 20.787 38.8683 21.1569 38.6884 21.5151C38.5367 21.8101 38.4001 22.09 38.2785 22.3716L38.2352 22.4749C38.1352 22.7231 38.0169 23.0064 37.8153 23.2613C37.607 23.5262 37.2538 23.6278 36.9389 23.5129C36.619 23.3979 36.4107 23.0963 36.4224 22.7598C36.4457 21.7551 36.0858 20.8853 35.496 19.8007C35.3777 19.5857 35.2677 19.3975 35.1661 19.2358C35.1561 19.814 35.1028 20.4155 34.9512 20.9953C34.7495 21.7817 34.4196 22.4765 34.0381 23.1147C35.0595 24.301 35.391 26.1304 35.1594 27.4217C35.0245 28.1781 34.7662 28.8796 34.5146 29.5577C34.283 30.1858 34.0648 30.7807 33.9498 31.3855C33.7615 32.3902 33.9065 33.5315 34.0431 34.6378C34.0731 34.8861 34.1064 35.131 34.1297 35.3743C34.1831 35.8441 34.268 36.3073 34.358 36.7988C34.513 37.6552 34.6779 38.5383 34.6562 39.4697C34.6296 40.796 34.2564 42.0189 33.4833 43.3152C32.9484 44.2083 32.3003 45.2096 31.5522 45.8511C31.4489 45.9444 31.3239 46.0327 31.1623 46.1327C31.034 46.2126 30.8907 46.251 30.7458 46.251C30.6008 46.251 30.4609 46.2143 30.3326 46.1327C30.1709 46.0327 30.0476 45.9444 29.9427 45.8511C29.1896 45.2096 28.5448 44.2083 28.0116 43.3152C27.2385 42.0189 26.8669 40.796 26.8386 39.4697C26.8186 38.54 26.9802 37.6552 27.1369 36.7988C27.2268 36.309 27.3118 35.8441 27.3618 35.3743C27.3885 35.1327 27.4184 34.8877 27.4518 34.6378C27.5901 33.5332 27.73 32.3902 27.5417 31.3855C27.4301 30.7807 27.2085 30.1858 26.9769 29.5577C26.7287 28.8796 26.4704 28.1765 26.3354 27.4217C26.1038 26.1321 26.4354 24.301 27.4568 23.1147C27.0735 22.4765 26.7453 21.7817 26.5437 20.9953C26.3921 20.4138 26.3354 19.8123 26.3288 19.2358C26.2288 19.3975 26.1172 19.5857 25.9989 19.8007C25.4074 20.8853 25.0475 21.7551 25.0725 22.7598C25.0792 23.0963 24.8709 23.3979 24.556 23.5129C24.2394 23.6278 23.8845 23.5262 23.6762 23.2613C23.4746 23.0064 23.3597 22.7231 23.2564 22.4749L23.2164 22.3716C23.0948 22.09 22.9548 21.8101 22.8065 21.5151C22.6116 21.1253 22.4066 20.7221 22.245 20.2822C21.4253 21.8067 20.3872 23.2546 20.6255 24.9174C20.8038 26.1571 21.6835 27.1884 22.0034 28.3981C22.3633 29.7693 21.9768 31.2055 21.8885 32.6201C21.7368 35.0494 22.4733 37.4336 22.8865 39.8362C23.3597 42.5837 23.5213 45.6411 25.459 47.6455C26.642 47.5106 27.6384 48.5319 28.2132 49.5733C28.5081 50.1115 28.7547 50.6946 28.758 51.3094C28.7614 51.9209 28.4798 52.5657 27.935 52.8506C27.3501 53.1622 26.602 52.9856 26.0705 52.589C25.5357 52.1925 25.1775 51.6143 24.8376 51.0445C25.509 52.4857 26.1838 53.9236 26.8569 55.3649C27.1868 56.0663 27.5584 56.8194 28.2515 57.1693C29.008 57.5492 29.9044 57.3443 30.7508 57.3443H30.7541Z" fill="white"/>
<path d="M21.6099 14.3202C21.9431 13.2989 22.6513 11.7677 23.9209 11.5594C24.4857 11.4661 24.9955 11.671 25.3221 12.1176C25.8903 12.8973 25.742 14.2269 25.4254 14.8484C24.9489 15.7714 23.8942 16.233 22.8495 16.2596C22.8595 17.3676 23.2727 18.5173 23.6759 19.6386L23.6893 19.6753C23.7726 19.9102 23.8776 20.1384 23.9875 20.3734C24.1791 19.9002 24.4074 19.4637 24.629 19.0538C25.2371 17.9424 26.0769 16.6628 27.1949 16.6562H27.2015C27.4165 16.6562 27.6248 16.7461 27.7764 16.9078C27.9247 17.0694 27.998 17.2843 27.9813 17.5059C27.8813 18.6506 27.8197 19.6753 28.0613 20.61C28.4178 22.0045 29.3009 23.1192 30.1573 24.1939C30.3323 24.4121 30.5339 24.6171 30.7455 24.822C30.9604 24.6171 31.162 24.4121 31.337 24.1939C32.19 23.1192 33.0764 22.0045 33.433 20.61C33.6746 19.6769 33.6113 18.6522 33.513 17.5059C33.4963 17.2843 33.5696 17.0694 33.7179 16.9078C33.8662 16.7461 34.0745 16.6562 34.2927 16.6562H34.2994C35.4174 16.6628 36.2571 17.9424 36.8653 19.0538C37.0869 19.4637 37.3118 19.9002 37.5034 20.3734C37.6184 20.1384 37.7217 19.9102 37.805 19.6753L37.8183 19.6386C38.2182 18.5173 38.6314 17.3676 38.6447 16.2596C37.6 16.233 36.542 15.7764 36.0688 14.8484C35.7489 14.2269 35.6057 12.8973 36.1722 12.1176C36.4987 11.671 37.0052 11.4694 37.5734 11.5594C38.843 11.7677 39.5478 13.2989 39.8844 14.3202C40.7508 13.6687 41.2589 12.2775 41.4389 11.1595C41.4605 11.0246 41.4739 10.8846 41.4905 10.7463L38.3165 7.57227C38.3165 7.57227 38.3115 7.57726 38.3082 7.57893C37.7983 8.07878 37.3535 8.65694 36.8703 9.4467C36.8136 9.54333 36.7453 9.68163 36.6753 9.82991C36.5037 10.1865 36.3054 10.5897 35.9972 10.8779C35.8256 11.0395 35.594 11.1129 35.3624 11.0829C35.1308 11.0529 34.9225 10.9179 34.7976 10.7196C34.556 10.3298 33.5846 10.0282 33.0031 9.84991C32.8815 9.81325 32.7682 9.7766 32.6632 9.74161C31.9918 9.52334 31.3136 9.49002 30.7388 9.48668C30.174 9.49002 29.4958 9.52334 28.8244 9.74161C28.7211 9.77493 28.6061 9.81158 28.4845 9.84991C27.903 10.0282 26.93 10.3298 26.6867 10.7196C26.5651 10.9179 26.3568 11.0529 26.1252 11.0829C25.8936 11.1129 25.662 11.0395 25.4904 10.8779C25.1788 10.5897 24.9839 10.1865 24.8123 9.82991C24.7423 9.68163 24.674 9.545 24.614 9.4467C24.1341 8.65694 23.6909 8.07878 23.1794 7.57893C23.1778 7.57726 23.1744 7.57393 23.1711 7.57227L19.9971 10.7463C20.0121 10.8863 20.0254 11.0262 20.0487 11.1612C20.2303 12.2792 20.7368 13.6704 21.6032 14.3219L21.6099 14.3202Z" fill="white"/>
<path d="M25.1674 55.3148C24.7341 54.3568 24.1127 53.487 23.7128 52.514C23.3162 51.5393 23.1613 50.3846 23.6728 49.4633C23.8111 49.215 23.9994 48.9767 24.0227 48.6935C24.0494 48.4152 23.9144 48.152 23.7778 47.9104C23.0113 46.5391 22.0583 45.2262 21.7417 43.6883C21.5001 42.522 21.6484 41.3107 21.4835 40.1311C21.2552 38.4816 20.4355 36.9537 20.2605 35.2976C20.0322 33.1149 20.952 30.8639 20.3821 28.7412C20.1206 27.7632 19.5524 26.8868 19.2808 25.9121C18.9009 24.5375 19.1359 23.0529 19.664 21.73C20.1439 20.5137 20.867 19.4057 21.5984 18.3211C21.3935 17.5546 21.2552 16.7599 21.2935 15.9468C19.8806 15.2786 19.0325 13.6458 18.6527 12.0996L0 30.7523L25.6022 56.3545C25.4556 56.0096 25.324 55.6564 25.169 55.3165L25.1674 55.3148Z" fill="white"/>
<path d="M25.9575 8.63404C26.0475 8.78233 26.1258 8.94228 26.2024 9.09723C26.7772 8.74068 27.4687 8.52907 28.0302 8.35413C28.1418 8.3208 28.2485 8.28748 28.3418 8.25749C29.2182 7.97258 30.0479 7.92759 30.7444 7.92426C31.4492 7.92759 32.2789 7.97091 33.1536 8.25749C33.2503 8.28748 33.3586 8.3208 33.4702 8.35413C34.0317 8.52907 34.7232 8.74068 35.298 9.09723C35.3746 8.94228 35.4529 8.78066 35.5429 8.63404C36.0927 7.72765 36.6093 7.06119 37.2157 6.46637L30.7494 0L24.2847 6.4647C24.8912 7.05785 25.4077 7.72598 25.9592 8.63238L25.9575 8.63404Z" fill="white"/>
<path d="M42.8469 12.0981C42.4653 13.6459 41.6206 15.2771 40.2077 15.9452C40.2476 16.8116 40.0894 17.6614 39.8578 18.4778C39.9444 18.5678 40.0227 18.6694 40.0894 18.766C41.4639 20.8354 42.9002 23.233 42.3004 25.6456C42.0588 26.6203 41.4939 27.4867 41.2024 28.4464C40.5176 30.7241 41.434 33.18 41.1524 35.5409C40.9974 36.8405 40.4842 38.0702 40.211 39.3531C39.7011 41.744 39.9894 44.4149 38.6281 46.4476C38.5032 46.6326 38.3666 46.8142 38.2316 46.9958C37.885 47.469 37.5601 47.9572 37.5601 48.527C37.5568 49.1118 37.9034 49.635 38.0566 50.1998C38.5098 51.8793 37.2336 53.4688 36.4571 55.03C36.2322 55.4799 36.0439 55.9514 35.834 56.4113L61.4979 30.7474L42.8452 12.0947L42.8469 12.0981Z" fill="white"/>
<path d="M33.0482 29.0192C33.2831 28.3744 33.508 27.7662 33.6197 27.1481C33.7613 26.3583 33.573 25.2603 33.0948 24.4839C32.9165 24.7155 32.7349 24.9437 32.56 25.1653C32.2551 25.5486 31.9152 25.8701 31.5853 26.18C31.4886 26.2733 31.3903 26.3683 31.2937 26.4616C31.1421 26.6099 30.9438 26.6832 30.7455 26.6832C30.5473 26.6832 30.3523 26.6099 30.2007 26.4616C30.1041 26.3683 30.0058 26.2733 29.9091 26.18C29.5792 25.8718 29.241 25.5486 28.9344 25.1653C28.7595 24.9437 28.5779 24.7155 28.3996 24.4839C27.9231 25.2603 27.7348 26.3583 27.8747 27.1481C27.9864 27.7662 28.2113 28.3744 28.4462 29.0192C28.6912 29.6806 28.9428 30.3621 29.081 31.0985C29.3126 32.3415 29.1544 33.6078 29.0044 34.8341C28.9744 35.0723 28.9444 35.3106 28.9178 35.5455C28.8611 36.0704 28.7661 36.5835 28.6762 37.0801C28.5279 37.8931 28.3879 38.6629 28.4013 39.4377C28.4212 40.4824 28.7278 41.4571 29.356 42.5117C29.7425 43.1632 30.239 43.9463 30.7472 44.4661C31.257 43.9463 31.7552 43.1632 32.1418 42.5117C32.7699 41.4604 33.0715 40.4824 33.0965 39.4377C33.1098 38.6646 32.9682 37.8931 32.8216 37.0801C32.7316 36.5835 32.6366 36.0687 32.58 35.5455C32.5533 35.3106 32.5233 35.0723 32.4933 34.8341C32.3417 33.6078 32.1801 32.3415 32.4167 31.0985C32.555 30.3621 32.8066 29.6806 33.0515 29.0192H33.0482Z" fill="white"/>
<path d="M37.4621 14.1353C37.6071 14.4102 37.9553 14.5885 38.3485 14.6601C38.0569 13.837 37.6704 13.2589 37.3971 13.1289C37.3238 13.3738 37.3505 13.9153 37.4605 14.1369L37.4621 14.1353Z" fill="white"/>
<path d="M24.0993 13.1306C23.8211 13.2689 23.4379 13.8454 23.1479 14.6584C23.5412 14.5885 23.8911 14.4102 24.031 14.1336C24.146 13.912 24.1726 13.3772 24.0977 13.1289L24.0993 13.1306Z" fill="white"/>
<path d="M30.7541 57.3443C31.5938 57.3443 32.4869 57.5492 33.24 57.1726C33.9348 56.8227 34.3113 56.068 34.6379 55.3615C35.3094 53.9236 35.9808 52.4857 36.6506 51.0478C36.3141 51.606 35.9692 52.1758 35.4543 52.5757C34.9412 52.9723 34.2114 53.1672 33.6266 52.8839C32.6119 52.4008 32.6319 50.9195 33.0917 49.8915C33.6299 48.7019 34.7012 47.6172 36.0042 47.6039C37.1255 46.5225 37.7037 44.9897 38.0236 43.4618C38.3401 41.9373 38.4301 40.3711 38.7517 38.8465C39.0566 37.4186 39.5648 36.0274 39.6447 34.5745C39.763 32.5151 39.0166 30.4124 39.5448 28.4214C39.9213 26.9901 40.9427 25.7039 40.8977 24.2227C40.8544 22.8114 39.8697 21.6534 39.2049 20.3905C39.0532 20.787 38.8683 21.1569 38.6884 21.5151C38.5367 21.8101 38.4001 22.09 38.2785 22.3716L38.2352 22.4749C38.1352 22.7231 38.0169 23.0064 37.8153 23.2613C37.607 23.5262 37.2538 23.6278 36.9389 23.5129C36.619 23.3979 36.4107 23.0963 36.4224 22.7598C36.4457 21.7551 36.0858 20.8853 35.496 19.8007C35.3777 19.5857 35.2677 19.3975 35.1661 19.2358C35.1561 19.814 35.1028 20.4155 34.9512 20.9953C34.7495 21.7817 34.4196 22.4765 34.0381 23.1147C35.0595 24.301 35.391 26.1304 35.1594 27.4217C35.0245 28.1781 34.7662 28.8796 34.5146 29.5577C34.283 30.1858 34.0648 30.7807 33.9498 31.3855C33.7615 32.3902 33.9065 33.5315 34.0431 34.6378C34.0731 34.8861 34.1064 35.131 34.1297 35.3743C34.1831 35.8441 34.268 36.3073 34.358 36.7988C34.513 37.6552 34.6779 38.5383 34.6562 39.4697C34.6296 40.796 34.2564 42.0189 33.4833 43.3152C32.9484 44.2083 32.3003 45.2096 31.5522 45.8511C31.4489 45.9444 31.3239 46.0327 31.1623 46.1327C31.034 46.2126 30.8907 46.251 30.7458 46.251C30.6008 46.251 30.4609 46.2143 30.3326 46.1327C30.1709 46.0327 30.0476 45.9444 29.9427 45.8511C29.1896 45.2096 28.5448 44.2083 28.0116 43.3152C27.2385 42.0189 26.8669 40.796 26.8386 39.4697C26.8186 38.54 26.9802 37.6552 27.1369 36.7988C27.2268 36.309 27.3118 35.8441 27.3618 35.3743C27.3885 35.1327 27.4184 34.8877 27.4518 34.6378C27.5901 33.5332 27.73 32.3902 27.5417 31.3855C27.4301 30.7807 27.2085 30.1858 26.9769 29.5577C26.7287 28.8796 26.4704 28.1765 26.3354 27.4217C26.1038 26.1321 26.4354 24.301 27.4568 23.1147C27.0735 22.4765 26.7453 21.7817 26.5437 20.9953C26.3921 20.4138 26.3354 19.8123 26.3288 19.2358C26.2288 19.3975 26.1172 19.5857 25.9989 19.8007C25.4074 20.8853 25.0475 21.7551 25.0725 22.7598C25.0792 23.0963 24.8709 23.3979 24.556 23.5129C24.2394 23.6278 23.8845 23.5262 23.6762 23.2613C23.4746 23.0064 23.3597 22.7231 23.2564 22.4749L23.2164 22.3716C23.0948 22.09 22.9548 21.8101 22.8065 21.5151C22.6116 21.1253 22.4066 20.7221 22.245 20.2822C21.4253 21.8067 20.3872 23.2546 20.6255 24.9174C20.8038 26.1571 21.6835 27.1884 22.0034 28.3981C22.3633 29.7693 21.9768 31.2055 21.8885 32.6201C21.7368 35.0494 22.4733 37.4336 22.8865 39.8362C23.3597 42.5837 23.5213 45.6411 25.459 47.6455C26.642 47.5106 27.6384 48.5319 28.2132 49.5733C28.5081 50.1115 28.7547 50.6946 28.758 51.3094C28.7614 51.9209 28.4798 52.5657 27.935 52.8506C27.3501 53.1622 26.602 52.9856 26.0705 52.589C25.5357 52.1925 25.1775 51.6143 24.8376 51.0445C25.509 52.4857 26.1838 53.9236 26.8569 55.3649C27.1868 56.0663 27.5584 56.8194 28.2515 57.1693C29.008 57.5492 29.9044 57.3443 30.7508 57.3443H30.7541Z" fill="white"/>
<path d="M21.6099 14.3202C21.9431 13.2989 22.6513 11.7677 23.9209 11.5594C24.4857 11.4661 24.9955 11.671 25.3221 12.1176C25.8903 12.8973 25.742 14.2269 25.4254 14.8484C24.9489 15.7714 23.8942 16.233 22.8495 16.2596C22.8595 17.3676 23.2727 18.5173 23.6759 19.6386L23.6893 19.6753C23.7726 19.9102 23.8776 20.1384 23.9875 20.3734C24.1791 19.9002 24.4074 19.4637 24.629 19.0538C25.2371 17.9424 26.0769 16.6628 27.1949 16.6562H27.2015C27.4165 16.6562 27.6248 16.7461 27.7764 16.9078C27.9247 17.0694 27.998 17.2843 27.9813 17.5059C27.8813 18.6506 27.8197 19.6753 28.0613 20.61C28.4178 22.0045 29.3009 23.1192 30.1573 24.1939C30.3323 24.4121 30.5339 24.6171 30.7455 24.822C30.9604 24.6171 31.162 24.4121 31.337 24.1939C32.19 23.1192 33.0764 22.0045 33.433 20.61C33.6746 19.6769 33.6113 18.6522 33.513 17.5059C33.4963 17.2843 33.5696 17.0694 33.7179 16.9078C33.8662 16.7461 34.0745 16.6562 34.2927 16.6562H34.2994C35.4174 16.6628 36.2571 17.9424 36.8653 19.0538C37.0869 19.4637 37.3118 19.9002 37.5034 20.3734C37.6184 20.1384 37.7217 19.9102 37.805 19.6753L37.8183 19.6386C38.2182 18.5173 38.6314 17.3676 38.6447 16.2596C37.6 16.233 36.542 15.7764 36.0688 14.8484C35.7489 14.2269 35.6057 12.8973 36.1722 12.1176C36.4987 11.671 37.0052 11.4694 37.5734 11.5594C38.843 11.7677 39.5478 13.2989 39.8844 14.3202C40.7508 13.6687 41.2589 12.2775 41.4389 11.1595C41.4605 11.0246 41.4739 10.8846 41.4905 10.7463L38.3165 7.57227C38.3165 7.57227 38.3115 7.57726 38.3082 7.57893C37.7983 8.07878 37.3535 8.65694 36.8703 9.4467C36.8136 9.54333 36.7453 9.68163 36.6753 9.82991C36.5037 10.1865 36.3054 10.5897 35.9972 10.8779C35.8256 11.0395 35.594 11.1129 35.3624 11.0829C35.1308 11.0529 34.9225 10.9179 34.7976 10.7196C34.556 10.3298 33.5846 10.0282 33.0031 9.84991C32.8815 9.81325 32.7682 9.7766 32.6632 9.74161C31.9918 9.52334 31.3136 9.49002 30.7388 9.48668C30.174 9.49002 29.4958 9.52334 28.8244 9.74161C28.7211 9.77493 28.6061 9.81158 28.4845 9.84991C27.903 10.0282 26.93 10.3298 26.6867 10.7196C26.5651 10.9179 26.3568 11.0529 26.1252 11.0829C25.8936 11.1129 25.662 11.0395 25.4904 10.8779C25.1788 10.5897 24.9839 10.1865 24.8123 9.82991C24.7423 9.68163 24.674 9.545 24.614 9.4467C24.1341 8.65694 23.6909 8.07878 23.1794 7.57893C23.1778 7.57726 23.1744 7.57393 23.1711 7.57227L19.9971 10.7463C20.0121 10.8863 20.0254 11.0262 20.0487 11.1612C20.2303 12.2792 20.7368 13.6704 21.6032 14.3219L21.6099 14.3202Z" fill="white"/>
<path d="M25.1674 55.3148C24.7341 54.3568 24.1127 53.487 23.7128 52.514C23.3162 51.5393 23.1613 50.3846 23.6728 49.4633C23.8111 49.215 23.9994 48.9767 24.0227 48.6935C24.0494 48.4152 23.9144 48.152 23.7778 47.9104C23.0113 46.5391 22.0583 45.2262 21.7417 43.6883C21.5001 42.522 21.6484 41.3107 21.4835 40.1311C21.2552 38.4816 20.4355 36.9537 20.2605 35.2976C20.0322 33.1149 20.952 30.8639 20.3821 28.7412C20.1206 27.7632 19.5524 26.8868 19.2808 25.9121C18.9009 24.5375 19.1359 23.0529 19.664 21.73C20.1439 20.5137 20.867 19.4057 21.5984 18.3211C21.3935 17.5546 21.2552 16.7599 21.2935 15.9468C19.8806 15.2786 19.0325 13.6458 18.6527 12.0996L0 30.7523L25.6022 56.3545C25.4556 56.0096 25.324 55.6564 25.169 55.3165L25.1674 55.3148Z" fill="white"/>
<path d="M25.9575 8.63404C26.0475 8.78233 26.1258 8.94228 26.2024 9.09723C26.7772 8.74068 27.4687 8.52907 28.0302 8.35413C28.1418 8.3208 28.2485 8.28748 28.3418 8.25749C29.2182 7.97258 30.0479 7.92759 30.7444 7.92426C31.4492 7.92759 32.2789 7.97091 33.1536 8.25749C33.2503 8.28748 33.3586 8.3208 33.4702 8.35413C34.0317 8.52907 34.7232 8.74068 35.298 9.09723C35.3746 8.94228 35.4529 8.78066 35.5429 8.63404C36.0927 7.72765 36.6093 7.06119 37.2157 6.46637L30.7494 0L24.2847 6.4647C24.8912 7.05785 25.4077 7.72598 25.9592 8.63238L25.9575 8.63404Z" fill="white"/>
<path d="M42.8469 12.0981C42.4653 13.6459 41.6206 15.2771 40.2077 15.9452C40.2476 16.8116 40.0894 17.6614 39.8578 18.4778C39.9444 18.5678 40.0227 18.6694 40.0894 18.766C41.4639 20.8354 42.9002 23.233 42.3004 25.6456C42.0588 26.6203 41.4939 27.4867 41.2024 28.4464C40.5176 30.7241 41.434 33.18 41.1524 35.5409C40.9974 36.8405 40.4842 38.0702 40.211 39.3531C39.7011 41.744 39.9894 44.4149 38.6281 46.4476C38.5032 46.6326 38.3666 46.8142 38.2316 46.9958C37.885 47.469 37.5601 47.9572 37.5601 48.527C37.5568 49.1118 37.9034 49.635 38.0566 50.1998C38.5098 51.8793 37.2336 53.4688 36.4571 55.03C36.2322 55.4799 36.0439 55.9514 35.834 56.4113L61.4979 30.7474L42.8452 12.0947L42.8469 12.0981Z" fill="white"/>
<path d="M38.3182 7.57095C38.4932 7.39934 38.6915 7.22272 38.8981 7.03778C39.5029 6.49961 40.1843 5.89313 40.5976 5.12669C40.6209 5.08671 40.6409 5.04339 40.6609 4.9984C40.7308 5.19667 40.7925 5.37828 40.8292 5.49492L40.8425 5.53157C41.4406 7.36601 41.6689 9.19546 41.4906 10.7433L42.8452 12.0979C42.9019 11.8663 42.9485 11.6347 42.9868 11.4098C43.2917 9.53869 43.0568 7.27771 42.332 5.04838L42.3187 5.01173C41.9921 4.01037 41.6106 2.99234 40.8242 2.52915C40.6425 2.42085 40.4243 2.39086 40.2193 2.44917C40.0177 2.50582 39.8428 2.64078 39.7428 2.82573C39.5612 3.15563 39.4812 3.49719 39.4062 3.7971C39.3563 4.02203 39.3029 4.23363 39.2213 4.38525C38.9397 4.91009 38.3916 5.39661 37.8601 5.8698C37.6418 6.06141 37.4202 6.26302 37.2152 6.46462L37.2119 6.46795L38.3166 7.57262L38.3182 7.57095Z" fill="white"/>
<path d="M18.6478 12.1031L20.0057 10.7451C19.8274 9.19727 20.0557 7.36616 20.6538 5.53339L20.6638 5.49673C20.7038 5.37843 20.7604 5.19849 20.8354 5.00022C20.8554 5.04354 20.8754 5.08686 20.8987 5.12851C21.3119 5.89494 21.9934 6.50309 22.5949 7.0396C22.8032 7.22454 23.0048 7.40115 23.178 7.57277L24.2827 6.4681H24.281C24.0761 6.26483 23.8512 6.06323 23.6362 5.87162C23.1047 5.39843 22.5582 4.91024 22.275 4.38707C22.1917 4.23545 22.14 4.02385 22.0867 3.79891C22.0167 3.50067 21.9351 3.16078 21.7535 2.82754C21.6535 2.6426 21.4786 2.50764 21.2736 2.45099C21.072 2.39434 20.8537 2.42433 20.6688 2.53097C19.8857 2.99416 19.5025 4.01218 19.1776 5.01355L19.1643 5.0502C18.4395 7.28119 18.2029 9.54217 18.5095 11.4116C18.5461 11.6365 18.5928 11.8715 18.6461 12.1014L18.6478 12.1031Z" fill="white"/>
</svg>
