<svg width="135" height="60" viewBox="0 0 135 60" fill="none" xmlns="http://www.w3.org/2000/svg">
<path d="M55.62 38V23.6427H57.888V31.034L64.6515 23.6225H67.1625L61.4925 29.981L67.4865 38H64.9148L60.0548 31.4187L57.888 33.6665V38H55.62ZM72.7713 38.2025C71.9343 38.2025 71.185 38.0608 70.5235 37.7772C69.862 37.4802 69.2883 37.0752 68.8023 36.5622C68.3298 36.0492 67.9653 35.4687 67.7088 34.8207C67.4523 34.1592 67.324 33.4572 67.324 32.7147C67.324 31.9722 67.4523 31.2702 67.7088 30.6087C67.9653 29.9472 68.3298 29.3667 68.8023 28.8672C69.2883 28.3542 69.862 27.956 70.5235 27.6725C71.1985 27.3755 71.9478 27.227 72.7713 27.227C73.5948 27.227 74.3373 27.3755 74.9988 27.6725C75.6738 27.956 76.2475 28.3542 76.72 28.8672C77.206 29.3667 77.5773 29.9472 77.8338 30.6087C78.0903 31.2702 78.2185 31.9722 78.2185 32.7147C78.2185 33.4572 78.0903 34.1592 77.8338 34.8207C77.5773 35.4687 77.206 36.0492 76.72 36.5622C76.2475 37.0752 75.6738 37.4802 74.9988 37.7772C74.3373 38.0608 73.5948 38.2025 72.7713 38.2025ZM69.6123 32.735C69.6123 33.41 69.754 34.0175 70.0375 34.5575C70.321 35.0975 70.699 35.5227 71.1715 35.8332C71.644 36.1437 72.1773 36.299 72.7713 36.299C73.3518 36.299 73.8783 36.1437 74.3508 35.8332C74.8368 35.5092 75.2215 35.0772 75.505 34.5372C75.7885 33.9837 75.9303 33.3762 75.9303 32.7147C75.9303 32.0397 75.7885 31.4322 75.505 30.8922C75.2215 30.3522 74.8368 29.927 74.3508 29.6165C73.8783 29.2925 73.3518 29.1305 72.7713 29.1305C72.1773 29.1305 71.644 29.2925 71.1715 29.6165C70.699 29.9405 70.321 30.3725 70.0375 30.9125C69.754 31.439 69.6123 32.0465 69.6123 32.735ZM89.6914 38H87.4639V32.0667C87.4639 31.0812 87.3019 30.359 86.9779 29.9C86.6674 29.441 86.2017 29.2115 85.5807 29.2115C85.1487 29.2115 84.7167 29.3195 84.2847 29.5355C83.8662 29.7515 83.4882 30.0485 83.1507 30.4265C82.8132 30.791 82.5702 31.2162 82.4217 31.7022V38H80.1942V27.4092H82.2192V29.5355C82.4892 29.063 82.8402 28.658 83.2722 28.3205C83.7177 27.9695 84.2172 27.6995 84.7707 27.5105C85.3242 27.3215 85.9114 27.227 86.5324 27.227C87.1669 27.227 87.6867 27.3417 88.0917 27.5712C88.5102 27.8007 88.8342 28.118 89.0637 28.523C89.3067 28.9145 89.4687 29.3735 89.5497 29.9C89.6442 30.413 89.6914 30.9597 89.6914 31.5402V38ZM91.5074 34.9017C91.5074 34.2267 91.6964 33.6395 92.0744 33.14C92.4659 32.627 92.9992 32.2355 93.6742 31.9655C94.3492 31.682 95.1322 31.5402 96.0232 31.5402C96.4957 31.5402 96.9749 31.574 97.4609 31.6415C97.9604 31.709 98.3992 31.817 98.7772 31.9655V31.2972C98.7772 30.5547 98.5544 29.9742 98.1089 29.5557C97.6634 29.1372 97.0222 28.928 96.1852 28.928C95.5912 28.928 95.0309 29.036 94.5044 29.252C93.9779 29.4545 93.4177 29.7447 92.8237 30.1227L92.0744 28.6242C92.7764 28.1517 93.4784 27.8007 94.1804 27.5712C94.8959 27.3417 95.6452 27.227 96.4282 27.227C97.8457 27.227 98.9594 27.605 99.7694 28.361C100.593 29.1035 101.005 30.1632 101.005 31.5402V35.489C101.005 35.7455 101.045 35.9277 101.126 36.0357C101.221 36.1437 101.376 36.2045 101.592 36.218V38C101.389 38.0405 101.207 38.0675 101.045 38.081C100.883 38.0945 100.748 38.1013 100.64 38.1013C100.168 38.1013 99.8099 37.9865 99.5669 37.757C99.3239 37.5275 99.1822 37.2575 99.1417 36.947L99.0809 36.3395C98.6219 36.9335 98.0347 37.3925 97.3192 37.7165C96.6037 38.0405 95.8814 38.2025 95.1524 38.2025C94.4504 38.2025 93.8227 38.0608 93.2692 37.7772C92.7157 37.4802 92.2837 37.082 91.9732 36.5825C91.6627 36.083 91.5074 35.5227 91.5074 34.9017ZM98.2507 35.5497C98.4127 35.3742 98.5409 35.1987 98.6354 35.0233C98.7299 34.8477 98.7772 34.6925 98.7772 34.5575V33.3425C98.3992 33.194 98.0009 33.086 97.5824 33.0185C97.1639 32.9375 96.7522 32.897 96.3472 32.897C95.5372 32.897 94.8757 33.059 94.3627 33.383C93.8632 33.707 93.6134 34.1525 93.6134 34.7195C93.6134 35.03 93.6944 35.327 93.8564 35.6105C94.0319 35.894 94.2749 36.1235 94.5854 36.299C94.9094 36.4745 95.3077 36.5622 95.7802 36.5622C96.2662 36.5622 96.7319 36.4677 97.1774 36.2787C97.6229 36.0897 97.9807 35.8467 98.2507 35.5497ZM106.308 38L102.278 27.4092H104.586L107.604 35.9345L110.621 27.4092H112.767L108.738 38H106.308ZM118.769 38.2025C117.932 38.2025 117.183 38.0608 116.521 37.7772C115.86 37.4802 115.286 37.0752 114.8 36.5622C114.327 36.0492 113.963 35.4687 113.706 34.8207C113.45 34.1592 113.322 33.4572 113.322 32.7147C113.322 31.9722 113.45 31.2702 113.706 30.6087C113.963 29.9472 114.327 29.3667 114.8 28.8672C115.286 28.3542 115.86 27.956 116.521 27.6725C117.196 27.3755 117.945 27.227 118.769 27.227C119.592 27.227 120.335 27.3755 120.996 27.6725C121.671 27.956 122.245 28.3542 122.718 28.8672C123.204 29.3667 123.575 29.9472 123.831 30.6087C124.088 31.2702 124.216 31.9722 124.216 32.7147C124.216 33.4572 124.088 34.1592 123.831 34.8207C123.575 35.4687 123.204 36.0492 122.718 36.5622C122.245 37.0752 121.671 37.4802 120.996 37.7772C120.335 38.0608 119.592 38.2025 118.769 38.2025ZM115.61 32.735C115.61 33.41 115.752 34.0175 116.035 34.5575C116.319 35.0975 116.697 35.5227 117.169 35.8332C117.642 36.1437 118.175 36.299 118.769 36.299C119.349 36.299 119.876 36.1437 120.348 35.8332C120.834 35.5092 121.219 35.0772 121.503 34.5372C121.786 33.9837 121.928 33.3762 121.928 32.7147C121.928 32.0397 121.786 31.4322 121.503 30.8922C121.219 30.3522 120.834 29.927 120.348 29.6165C119.876 29.2925 119.349 29.1305 118.769 29.1305C118.175 29.1305 117.642 29.2925 117.169 29.6165C116.697 29.9405 116.319 30.3725 116.035 30.9125C115.752 31.439 115.61 32.0465 115.61 32.735ZM125.244 36.6027L131.522 28.9887H125.467V27.4092H133.952V28.8065L127.715 36.4205H134.012V38H125.244V36.6027Z" fill="white"/>
<path d="M28.2542 46.423C28.1068 46.8717 27.9037 47.485 27.6316 47.7664C27.5094 47.8926 27.4032 47.9616 27.3382 47.9908C27.309 47.9125 27.2904 47.647 27.7285 46.8757C27.836 46.6858 28.0697 46.3818 28.302 46.2729L28.2529 46.4216L28.2542 46.423ZM21.2713 46.877C21.7094 47.6483 21.6908 47.9138 21.6616 47.9921C21.5978 47.9629 21.4903 47.8939 21.3695 47.7678C21.0973 47.4863 20.8956 46.8717 20.7469 46.4243L20.6978 46.2743C20.9301 46.3831 21.1651 46.6885 21.2726 46.877H21.2713Z" fill="white"/>
<path d="M26.3321 30.1219C26.5193 29.6081 26.6985 29.1236 26.7875 28.6311C26.9003 28.0018 26.7503 27.1269 26.3693 26.5083C26.2272 26.6928 26.0825 26.8747 25.9431 27.0513C25.7002 27.3566 25.4294 27.6128 25.1665 27.8597C25.0895 27.9341 25.0112 28.0098 24.9342 28.0841C24.8134 28.2023 24.6554 28.2607 24.4974 28.2607C24.3394 28.2607 24.1841 28.2023 24.0633 28.0841C23.9863 28.0098 23.908 27.9341 23.831 27.8597C23.5681 27.6142 23.2986 27.3566 23.0544 27.0513C22.915 26.8747 22.7703 26.6928 22.6282 26.5083C22.2485 27.1269 22.0985 28.0018 22.21 28.6311C22.299 29.1236 22.4782 29.6081 22.6654 30.1219C22.8605 30.6489 23.061 31.1919 23.1712 31.7787C23.3557 32.769 23.2296 33.778 23.1101 34.7551C23.0862 34.9449 23.0623 35.1347 23.0411 35.3219C22.996 35.7401 22.9203 36.149 22.8486 36.5446C22.7304 37.1925 22.6189 37.8058 22.6296 38.4231C22.6455 39.2555 22.8898 40.0321 23.3902 40.8724C23.6982 41.3915 24.0938 42.0155 24.4988 42.4297C24.905 42.0155 25.3019 41.3915 25.6099 40.8724C26.1104 40.0347 26.3507 39.2555 26.3706 38.4231C26.3812 37.8071 26.2684 37.1925 26.1516 36.5446C26.0799 36.149 26.0042 35.7388 25.9591 35.3219C25.9378 35.1347 25.9139 34.9449 25.89 34.7551C25.7692 33.778 25.6404 32.769 25.829 31.7787C25.9391 31.1919 26.1396 30.6489 26.3348 30.1219H26.3321Z" fill="white"/>
<path d="M29.8487 18.2628C29.9642 18.4818 30.2417 18.6239 30.555 18.681C30.3227 18.0251 30.0147 17.5645 29.797 17.4609C29.7386 17.6561 29.7598 18.0875 29.8474 18.2641L29.8487 18.2628Z" fill="white"/>
<path d="M19.2016 17.4623C18.9799 17.5725 18.6746 18.0318 18.4436 18.6796C18.7569 18.6239 19.0357 18.4818 19.1472 18.2615C19.2388 18.0849 19.26 17.6587 19.2003 17.4609L19.2016 17.4623Z" fill="white"/>
<path d="M24.5041 52.6905C25.1732 52.6905 25.8847 52.8538 26.4848 52.5537C27.0384 52.2749 27.3384 51.6736 27.5986 51.1107C28.1336 49.965 28.6686 48.8193 29.2023 47.6736C28.9341 48.1184 28.6593 48.5724 28.2491 48.891C27.8402 49.207 27.2588 49.3623 26.7928 49.1366C25.9843 48.7516 26.0002 47.5714 26.3666 46.7523C26.7954 45.8044 27.6491 44.9402 28.6872 44.9296C29.5806 44.068 30.0413 42.8467 30.2962 41.6293C30.5484 40.4146 30.6201 39.1667 30.8763 37.952C31.1193 36.8143 31.5242 35.7057 31.5879 34.5481C31.6822 32.9073 31.0874 31.2319 31.5083 29.6455C31.8083 28.5051 32.6221 27.4802 32.5862 26.3C32.5517 25.1756 31.7671 24.2529 31.2374 23.2467C31.1166 23.5626 30.9693 23.8573 30.8259 24.1428C30.7051 24.3777 30.5962 24.6008 30.4993 24.8251L30.4648 24.9074C30.3851 25.1052 30.2909 25.3309 30.1303 25.534C29.9643 25.7451 29.6829 25.8261 29.432 25.7345C29.1771 25.6429 29.0111 25.4026 29.0204 25.1344C29.039 24.3339 28.7523 23.6409 28.2823 22.7767C28.188 22.6054 28.1004 22.4554 28.0194 22.3267C28.0115 22.7873 27.969 23.2666 27.8482 23.7286C27.6876 24.3552 27.4247 24.9088 27.1207 25.4172C27.9345 26.3624 28.1987 27.8201 28.0141 28.8489C27.9066 29.4516 27.7008 30.0105 27.5004 30.5509C27.3158 31.0513 27.1419 31.5253 27.0503 32.0072C26.9003 32.8077 27.0158 33.7171 27.1247 34.5986C27.1486 34.7964 27.1751 34.9915 27.1937 35.1853C27.2362 35.5597 27.3039 35.9288 27.3756 36.3204C27.499 37.0028 27.6305 37.7064 27.6132 38.4485C27.592 39.5052 27.2946 40.4796 26.6786 41.5125C26.2525 42.224 25.7361 43.0219 25.14 43.533C25.0577 43.6073 24.9581 43.6777 24.8293 43.7574C24.7271 43.8211 24.6129 43.8516 24.4974 43.8516C24.3819 43.8516 24.2704 43.8224 24.1682 43.7574C24.0394 43.6777 23.9412 43.6073 23.8576 43.533C23.2575 43.0219 22.7437 42.224 22.3189 41.5125C21.7029 40.4796 21.4069 39.5052 21.3843 38.4485C21.3684 37.7077 21.4972 37.0028 21.622 36.3204C21.6937 35.9301 21.7614 35.5597 21.8012 35.1853C21.8224 34.9929 21.8463 34.7977 21.8729 34.5986C21.9831 33.7184 22.0946 32.8077 21.9446 32.0072C21.8556 31.5253 21.6791 31.0513 21.4945 30.5509C21.2967 30.0105 21.0909 29.4503 20.9834 28.8489C20.7989 27.8214 21.0631 26.3624 21.8769 25.4172C21.5715 24.9088 21.31 24.3552 21.1494 23.7286C21.0285 23.2652 20.9834 22.786 20.9781 22.3267C20.8985 22.4554 20.8095 22.6054 20.7152 22.7767C20.244 23.6409 19.9572 24.3339 19.9771 25.1344C19.9824 25.4026 19.8165 25.6429 19.5656 25.7345C19.3134 25.8261 19.0306 25.7451 18.8646 25.534C18.704 25.3309 18.6124 25.1052 18.5301 24.9074L18.4982 24.8251C18.4013 24.6008 18.2898 24.3777 18.1717 24.1428C18.0163 23.8321 17.853 23.5108 17.7243 23.1604C17.0711 24.3751 16.244 25.5287 16.4339 26.8536C16.5759 27.8413 17.2769 28.6631 17.5318 29.6269C17.8185 30.7195 17.5105 31.8638 17.4402 32.9909C17.3194 34.9265 17.9061 36.8262 18.2354 38.7405C18.6124 40.9297 18.7412 43.3657 20.2851 44.9628C21.2277 44.8552 22.0216 45.669 22.4796 46.4988C22.7145 46.9276 22.911 47.3922 22.9137 47.8821C22.9163 48.3693 22.692 48.883 22.2579 49.1101C21.7919 49.3583 21.1958 49.2176 20.7723 48.9016C20.3462 48.5857 20.0608 48.125 19.7899 47.671C20.3249 48.8193 20.8626 49.965 21.3989 51.1133C21.6618 51.6722 21.9578 52.2723 22.5101 52.5511C23.1128 52.8538 23.827 52.6905 24.5014 52.6905H24.5041Z" fill="white"/>
<path d="M17.2184 18.4103C17.4839 17.5965 18.0481 16.3765 19.0597 16.2105C19.5098 16.1362 19.916 16.2995 20.1762 16.6553C20.6289 17.2766 20.5108 18.3359 20.2585 18.8311C19.8788 19.5666 19.0385 19.9343 18.2061 19.9556C18.2141 20.8384 18.5433 21.7544 18.8646 22.6478L18.8752 22.677C18.9416 22.8642 19.0252 23.0461 19.1128 23.2333C19.2655 22.8563 19.4474 22.5084 19.6239 22.1819C20.1085 21.2964 20.7776 20.2768 21.6684 20.2715H21.6737C21.8449 20.2715 22.0109 20.3432 22.1317 20.472C22.2498 20.6007 22.3083 20.772 22.295 20.9486C22.2153 21.8606 22.1662 22.677 22.3587 23.4218C22.6428 24.533 23.3464 25.4211 24.0288 26.2774C24.1682 26.4513 24.3288 26.6146 24.4974 26.7779C24.6686 26.6146 24.8293 26.4513 24.9687 26.2774C25.6484 25.4211 26.3546 24.533 26.6387 23.4218C26.8312 22.6784 26.7808 21.8619 26.7025 20.9486C26.6892 20.772 26.7476 20.6007 26.8657 20.472C26.9839 20.3432 27.1498 20.2715 27.3238 20.2715H27.3291C28.2199 20.2768 28.8889 21.2964 29.3735 22.1819C29.5501 22.5084 29.7293 22.8563 29.882 23.2333C29.9736 23.0461 30.0559 22.8642 30.1222 22.677L30.1329 22.6478C30.4515 21.7544 30.7807 20.8384 30.7913 19.9556C29.959 19.9343 29.116 19.5706 28.7389 18.8311C28.484 18.3359 28.3699 17.2766 28.8212 16.6553C29.0814 16.2995 29.485 16.1388 29.9377 16.2105C30.9493 16.3765 31.5109 17.5965 31.779 18.4103C32.4694 17.8912 32.8743 16.7827 33.0176 15.8919C33.0349 15.7844 33.0455 15.6729 33.0588 15.5627L30.5298 13.0337C30.5298 13.0337 30.5258 13.0377 30.5232 13.039C30.1169 13.4373 29.7625 13.8979 29.3775 14.5272C29.3323 14.6042 29.2779 14.7144 29.2222 14.8325C29.0854 15.1166 28.9274 15.4379 28.6818 15.6676C28.5451 15.7963 28.3606 15.8547 28.176 15.8308C27.9915 15.807 27.8256 15.6994 27.726 15.5414C27.5335 15.2308 26.7595 14.9905 26.2962 14.8485C26.1993 14.8193 26.109 14.79 26.0254 14.7622C25.4904 14.5883 24.9501 14.5617 24.4921 14.5591C24.042 14.5617 23.5017 14.5883 22.9667 14.7622C22.8844 14.7887 22.7928 14.8179 22.6959 14.8485C22.2326 14.9905 21.4573 15.2308 21.2635 15.5414C21.1666 15.6994 21.0006 15.807 20.8161 15.8308C20.6316 15.8547 20.447 15.7963 20.3103 15.6676C20.062 15.4379 19.9067 15.1166 19.77 14.8325C19.7142 14.7144 19.6598 14.6055 19.612 14.5272C19.2297 13.8979 18.8765 13.4373 18.469 13.039C18.4676 13.0377 18.465 13.035 18.4623 13.0337L15.9333 15.5627C15.9453 15.6742 15.9559 15.7857 15.9745 15.8932C16.1192 16.784 16.5228 17.8925 17.2131 18.4116L17.2184 18.4103Z" fill="white"/>
<path d="M20.0527 51.0734C19.7075 50.31 19.2124 49.6171 18.8937 48.8418C18.5778 48.0651 18.4543 47.1452 18.8619 46.411C18.9721 46.2132 19.1221 46.0234 19.1407 45.7977C19.1619 45.576 19.0544 45.3662 18.9455 45.1737C18.3348 44.0812 17.5755 43.035 17.3232 41.8097C17.1308 40.8804 17.2489 39.9153 17.1175 38.9754C16.9356 37.6611 16.2824 36.4437 16.143 35.1242C15.9612 33.3851 16.694 31.5915 16.24 29.9002C16.0315 29.121 15.5788 28.4227 15.3624 27.646C15.0598 26.5508 15.247 25.368 15.6678 24.3139C16.0501 23.3448 16.6263 22.4619 17.2091 21.5977C17.0458 20.987 16.9356 20.3538 16.9661 19.7059C15.8404 19.1736 15.1646 17.8726 14.862 16.6406L0 31.5026L20.3992 51.9018C20.2824 51.627 20.1775 51.3455 20.054 51.0747L20.0527 51.0734Z" fill="white"/>
<path d="M20.682 13.8794C20.7537 13.9975 20.8161 14.125 20.8771 14.2484C21.3351 13.9643 21.8861 13.7957 22.3335 13.6564C22.4224 13.6298 22.5074 13.6033 22.5817 13.5794C23.28 13.3523 23.9411 13.3165 24.496 13.3138C25.0576 13.3165 25.7187 13.351 26.4157 13.5794C26.4927 13.6033 26.579 13.6298 26.6679 13.6564C27.1153 13.7957 27.6662 13.9643 28.1243 14.2484C28.1853 14.125 28.2477 13.9962 28.3194 13.8794C28.7575 13.1572 29.169 12.6262 29.6523 12.1522L24.5 7L19.3491 12.1509C19.8324 12.6235 20.2439 13.1559 20.6833 13.8781L20.682 13.8794Z" fill="white"/>
<path d="M34.1394 16.6394C33.8354 17.8727 33.1624 19.1723 32.0366 19.7047C32.0684 20.395 31.9423 21.0721 31.7578 21.7226C31.8268 21.7943 31.8892 21.8752 31.9423 21.9522C33.0376 23.6011 34.1819 25.5114 33.704 27.4337C33.5115 28.2103 33.0615 28.9007 32.8291 29.6653C32.2835 31.4801 33.0137 33.4369 32.7893 35.3181C32.6658 36.3535 32.257 37.3333 32.0392 38.3555C31.633 40.2605 31.8627 42.3886 30.7781 44.0082C30.6785 44.1556 30.5696 44.3003 30.4621 44.445C30.186 44.822 29.9271 45.211 29.9271 45.665C29.9245 46.131 30.2006 46.5478 30.3227 46.9979C30.6838 48.336 29.6669 49.6025 29.0483 50.8464C28.869 51.2049 28.719 51.5806 28.5518 51.947L49.0001 31.4987L34.1381 16.6367L34.1394 16.6394Z" fill="white"/>
<path d="M26.3321 30.1219C26.5193 29.6081 26.6985 29.1236 26.7875 28.6311C26.9003 28.0018 26.7503 27.1269 26.3693 26.5083C26.2272 26.6928 26.0825 26.8747 25.9431 27.0513C25.7002 27.3566 25.4294 27.6128 25.1665 27.8597C25.0895 27.9341 25.0112 28.0098 24.9342 28.0841C24.8134 28.2023 24.6554 28.2607 24.4974 28.2607C24.3394 28.2607 24.1841 28.2023 24.0633 28.0841C23.9863 28.0098 23.908 27.9341 23.831 27.8597C23.5681 27.6142 23.2986 27.3566 23.0544 27.0513C22.915 26.8747 22.7703 26.6928 22.6282 26.5083C22.2485 27.1269 22.0985 28.0018 22.21 28.6311C22.299 29.1236 22.4782 29.6081 22.6654 30.1219C22.8605 30.6489 23.061 31.1919 23.1712 31.7787C23.3557 32.769 23.2296 33.778 23.1101 34.7551C23.0862 34.9449 23.0623 35.1347 23.0411 35.3219C22.996 35.7401 22.9203 36.149 22.8486 36.5446C22.7304 37.1925 22.6189 37.8058 22.6296 38.4231C22.6455 39.2555 22.8898 40.0321 23.3902 40.8724C23.6982 41.3915 24.0938 42.0155 24.4988 42.4297C24.905 42.0155 25.3019 41.3915 25.6099 40.8724C26.1104 40.0347 26.3507 39.2555 26.3706 38.4231C26.3812 37.8071 26.2684 37.1925 26.1516 36.5446C26.0799 36.149 26.0042 35.7388 25.9591 35.3219C25.9378 35.1347 25.9139 34.9449 25.89 34.7551C25.7692 33.778 25.6404 32.769 25.829 31.7787C25.9391 31.1919 26.1396 30.6489 26.3348 30.1219H26.3321Z" fill="white"/>
<path d="M29.8487 18.2628C29.9642 18.4818 30.2417 18.6239 30.555 18.681C30.3227 18.0251 30.0147 17.5645 29.797 17.4609C29.7386 17.6561 29.7598 18.0875 29.8474 18.2641L29.8487 18.2628Z" fill="white"/>
<path d="M19.2016 17.4623C18.9799 17.5725 18.6746 18.0318 18.4436 18.6796C18.7569 18.6239 19.0357 18.4818 19.1472 18.2615C19.2388 18.0849 19.26 17.6587 19.2003 17.4609L19.2016 17.4623Z" fill="white"/>
<path d="M24.5041 52.6905C25.1732 52.6905 25.8847 52.8538 26.4848 52.5537C27.0384 52.2749 27.3384 51.6736 27.5986 51.1107C28.1336 49.965 28.6686 48.8193 29.2023 47.6736C28.9341 48.1184 28.6593 48.5724 28.2491 48.891C27.8402 49.207 27.2588 49.3623 26.7928 49.1366C25.9843 48.7516 26.0002 47.5714 26.3666 46.7523C26.7954 45.8044 27.6491 44.9402 28.6872 44.9296C29.5806 44.068 30.0413 42.8467 30.2962 41.6293C30.5484 40.4146 30.6201 39.1667 30.8763 37.952C31.1193 36.8143 31.5242 35.7057 31.5879 34.5481C31.6822 32.9073 31.0874 31.2319 31.5083 29.6455C31.8083 28.5051 32.6221 27.4802 32.5862 26.3C32.5517 25.1756 31.7671 24.2529 31.2374 23.2467C31.1166 23.5626 30.9693 23.8573 30.8259 24.1428C30.7051 24.3777 30.5962 24.6008 30.4993 24.8251L30.4648 24.9074C30.3851 25.1052 30.2909 25.3309 30.1303 25.534C29.9643 25.7451 29.6829 25.8261 29.432 25.7345C29.1771 25.6429 29.0111 25.4026 29.0204 25.1344C29.039 24.3339 28.7523 23.6409 28.2823 22.7767C28.188 22.6054 28.1004 22.4554 28.0194 22.3267C28.0115 22.7873 27.969 23.2666 27.8482 23.7286C27.6876 24.3552 27.4247 24.9088 27.1207 25.4172C27.9345 26.3624 28.1987 27.8201 28.0141 28.8489C27.9066 29.4516 27.7008 30.0105 27.5004 30.5509C27.3158 31.0513 27.1419 31.5253 27.0503 32.0072C26.9003 32.8077 27.0158 33.7171 27.1247 34.5986C27.1486 34.7964 27.1751 34.9915 27.1937 35.1853C27.2362 35.5597 27.3039 35.9288 27.3756 36.3204C27.499 37.0028 27.6305 37.7064 27.6132 38.4485C27.592 39.5052 27.2946 40.4796 26.6786 41.5125C26.2525 42.224 25.7361 43.0219 25.14 43.533C25.0577 43.6073 24.9581 43.6777 24.8293 43.7574C24.7271 43.8211 24.6129 43.8516 24.4974 43.8516C24.3819 43.8516 24.2704 43.8224 24.1682 43.7574C24.0394 43.6777 23.9412 43.6073 23.8576 43.533C23.2575 43.0219 22.7437 42.224 22.3189 41.5125C21.7029 40.4796 21.4069 39.5052 21.3843 38.4485C21.3684 37.7077 21.4972 37.0028 21.622 36.3204C21.6937 35.9301 21.7614 35.5597 21.8012 35.1853C21.8224 34.9929 21.8463 34.7977 21.8729 34.5986C21.9831 33.7184 22.0946 32.8077 21.9446 32.0072C21.8556 31.5253 21.6791 31.0513 21.4945 30.5509C21.2967 30.0105 21.0909 29.4503 20.9834 28.8489C20.7989 27.8214 21.0631 26.3624 21.8769 25.4172C21.5715 24.9088 21.31 24.3552 21.1494 23.7286C21.0285 23.2652 20.9834 22.786 20.9781 22.3267C20.8985 22.4554 20.8095 22.6054 20.7152 22.7767C20.244 23.6409 19.9572 24.3339 19.9771 25.1344C19.9824 25.4026 19.8165 25.6429 19.5656 25.7345C19.3134 25.8261 19.0306 25.7451 18.8646 25.534C18.704 25.3309 18.6124 25.1052 18.5301 24.9074L18.4982 24.8251C18.4013 24.6008 18.2898 24.3777 18.1717 24.1428C18.0163 23.8321 17.853 23.5108 17.7243 23.1604C17.0711 24.3751 16.244 25.5287 16.4339 26.8536C16.5759 27.8413 17.2769 28.6631 17.5318 29.6269C17.8185 30.7195 17.5105 31.8638 17.4402 32.9909C17.3194 34.9265 17.9061 36.8262 18.2354 38.7405C18.6124 40.9297 18.7412 43.3657 20.2851 44.9628C21.2277 44.8552 22.0216 45.669 22.4796 46.4988C22.7145 46.9276 22.911 47.3922 22.9137 47.8821C22.9163 48.3693 22.692 48.883 22.2579 49.1101C21.7919 49.3583 21.1958 49.2176 20.7723 48.9016C20.3462 48.5857 20.0608 48.125 19.7899 47.671C20.3249 48.8193 20.8626 49.965 21.3989 51.1133C21.6618 51.6722 21.9578 52.2723 22.5101 52.5511C23.1128 52.8538 23.827 52.6905 24.5014 52.6905H24.5041Z" fill="white"/>
<path d="M17.2184 18.4103C17.4839 17.5965 18.0481 16.3765 19.0597 16.2105C19.5098 16.1362 19.916 16.2995 20.1762 16.6553C20.6289 17.2766 20.5108 18.3359 20.2585 18.8311C19.8788 19.5666 19.0385 19.9343 18.2061 19.9556C18.2141 20.8384 18.5433 21.7544 18.8646 22.6478L18.8752 22.677C18.9416 22.8642 19.0252 23.0461 19.1128 23.2333C19.2655 22.8563 19.4474 22.5084 19.6239 22.1819C20.1085 21.2964 20.7776 20.2768 21.6684 20.2715H21.6737C21.8449 20.2715 22.0109 20.3432 22.1317 20.472C22.2498 20.6007 22.3083 20.772 22.295 20.9486C22.2153 21.8606 22.1662 22.677 22.3587 23.4218C22.6428 24.533 23.3464 25.4211 24.0288 26.2774C24.1682 26.4513 24.3288 26.6146 24.4974 26.7779C24.6686 26.6146 24.8293 26.4513 24.9687 26.2774C25.6484 25.4211 26.3546 24.533 26.6387 23.4218C26.8312 22.6784 26.7808 21.8619 26.7025 20.9486C26.6892 20.772 26.7476 20.6007 26.8657 20.472C26.9839 20.3432 27.1498 20.2715 27.3238 20.2715H27.3291C28.2199 20.2768 28.8889 21.2964 29.3735 22.1819C29.5501 22.5084 29.7293 22.8563 29.882 23.2333C29.9736 23.0461 30.0559 22.8642 30.1222 22.677L30.1329 22.6478C30.4515 21.7544 30.7807 20.8384 30.7913 19.9556C29.959 19.9343 29.116 19.5706 28.7389 18.8311C28.484 18.3359 28.3699 17.2766 28.8212 16.6553C29.0814 16.2995 29.485 16.1388 29.9377 16.2105C30.9493 16.3765 31.5109 17.5965 31.779 18.4103C32.4694 17.8912 32.8743 16.7827 33.0176 15.8919C33.0349 15.7844 33.0455 15.6729 33.0588 15.5627L30.5298 13.0337C30.5298 13.0337 30.5258 13.0377 30.5232 13.039C30.1169 13.4373 29.7625 13.8979 29.3775 14.5272C29.3323 14.6042 29.2779 14.7144 29.2222 14.8325C29.0854 15.1166 28.9274 15.4379 28.6818 15.6676C28.5451 15.7963 28.3606 15.8547 28.176 15.8308C27.9915 15.807 27.8256 15.6994 27.726 15.5414C27.5335 15.2308 26.7595 14.9905 26.2962 14.8485C26.1993 14.8193 26.109 14.79 26.0254 14.7622C25.4904 14.5883 24.9501 14.5617 24.4921 14.5591C24.042 14.5617 23.5017 14.5883 22.9667 14.7622C22.8844 14.7887 22.7928 14.8179 22.6959 14.8485C22.2326 14.9905 21.4573 15.2308 21.2635 15.5414C21.1666 15.6994 21.0006 15.807 20.8161 15.8308C20.6316 15.8547 20.447 15.7963 20.3103 15.6676C20.062 15.4379 19.9067 15.1166 19.77 14.8325C19.7142 14.7144 19.6598 14.6055 19.612 14.5272C19.2297 13.8979 18.8765 13.4373 18.469 13.039C18.4676 13.0377 18.465 13.035 18.4623 13.0337L15.9333 15.5627C15.9453 15.6742 15.9559 15.7857 15.9745 15.8932C16.1192 16.784 16.5228 17.8925 17.2131 18.4116L17.2184 18.4103Z" fill="white"/>
<path d="M20.0527 51.0734C19.7075 50.31 19.2124 49.6171 18.8937 48.8418C18.5778 48.0651 18.4543 47.1452 18.8619 46.411C18.9721 46.2132 19.1221 46.0234 19.1407 45.7977C19.1619 45.576 19.0544 45.3662 18.9455 45.1737C18.3348 44.0812 17.5755 43.035 17.3232 41.8097C17.1308 40.8804 17.2489 39.9153 17.1175 38.9754C16.9356 37.6611 16.2824 36.4437 16.143 35.1242C15.9612 33.3851 16.694 31.5915 16.24 29.9002C16.0315 29.121 15.5788 28.4227 15.3624 27.646C15.0598 26.5508 15.247 25.368 15.6678 24.3139C16.0501 23.3448 16.6263 22.4619 17.2091 21.5977C17.0458 20.987 16.9356 20.3538 16.9661 19.7059C15.8404 19.1736 15.1646 17.8726 14.862 16.6406L0 31.5026L20.3992 51.9018C20.2824 51.627 20.1775 51.3455 20.054 51.0747L20.0527 51.0734Z" fill="white"/>
<path d="M20.682 13.8794C20.7537 13.9975 20.8161 14.125 20.8771 14.2484C21.3351 13.9643 21.8861 13.7957 22.3335 13.6564C22.4224 13.6298 22.5074 13.6033 22.5817 13.5794C23.28 13.3523 23.9411 13.3165 24.496 13.3138C25.0576 13.3165 25.7187 13.351 26.4157 13.5794C26.4927 13.6033 26.579 13.6298 26.6679 13.6564C27.1153 13.7957 27.6662 13.9643 28.1243 14.2484C28.1853 14.125 28.2477 13.9962 28.3194 13.8794C28.7575 13.1572 29.169 12.6262 29.6523 12.1522L24.5 7L19.3491 12.1509C19.8324 12.6235 20.2439 13.1559 20.6833 13.8781L20.682 13.8794Z" fill="white"/>
<path d="M34.1394 16.6394C33.8354 17.8727 33.1624 19.1723 32.0366 19.7047C32.0684 20.395 31.9423 21.0721 31.7578 21.7226C31.8268 21.7943 31.8892 21.8752 31.9423 21.9522C33.0376 23.6011 34.1819 25.5114 33.704 27.4337C33.5115 28.2103 33.0615 28.9007 32.8291 29.6653C32.2835 31.4801 33.0137 33.4369 32.7893 35.3181C32.6658 36.3535 32.257 37.3333 32.0392 38.3555C31.633 40.2605 31.8627 42.3886 30.7781 44.0082C30.6785 44.1556 30.5696 44.3003 30.4621 44.445C30.186 44.822 29.9271 45.211 29.9271 45.665C29.9245 46.131 30.2006 46.5478 30.3227 46.9979C30.6838 48.336 29.6669 49.6025 29.0483 50.8464C28.869 51.2049 28.719 51.5806 28.5518 51.947L49.0001 31.4987L34.1381 16.6367L34.1394 16.6394Z" fill="white"/>
<path d="M30.5309 13.0324C30.6703 12.8957 30.8283 12.755 30.9929 12.6076C31.4748 12.1788 32.0178 11.6956 32.347 11.0849C32.3656 11.053 32.3815 11.0185 32.3975 10.9827C32.4532 11.1407 32.5023 11.2854 32.5315 11.3783L32.5422 11.4075C33.0187 12.8691 33.2006 14.3268 33.0586 15.5601L34.1379 16.6394C34.183 16.4549 34.2202 16.2703 34.2507 16.0911C34.4937 14.6003 34.3065 12.7988 33.729 11.0225L33.7184 10.9933C33.4582 10.1954 33.1542 9.38431 32.5276 9.01525C32.3828 8.92896 32.2089 8.90507 32.0457 8.95153C31.885 8.99667 31.7456 9.1042 31.666 9.25156C31.5213 9.51441 31.4575 9.78656 31.3978 10.0255C31.358 10.2047 31.3155 10.3733 31.2504 10.4941C31.0261 10.9123 30.5893 11.3 30.1658 11.677C29.9919 11.8297 29.8154 11.9903 29.6521 12.1509L29.6494 12.1536L30.5296 13.0338L30.5309 13.0324Z" fill="white"/>
<path d="M14.8579 16.6436L15.9399 15.5616C15.7978 14.3283 15.9797 12.8694 16.4563 11.4091L16.4642 11.3799C16.4961 11.2856 16.5412 11.1422 16.601 10.9842C16.6169 11.0188 16.6328 11.0533 16.6514 11.0865C16.9807 11.6971 17.5236 12.1817 18.0029 12.6092C18.1688 12.7565 18.3295 12.8972 18.4675 13.034L19.3477 12.1538H19.3464C19.1831 11.9919 19.0039 11.8312 18.8326 11.6786C18.4091 11.3015 17.9737 10.9126 17.748 10.4957C17.6816 10.3749 17.6405 10.2063 17.598 10.0271C17.5422 9.78944 17.4772 9.51862 17.3325 9.25311C17.2528 9.10575 17.1134 8.99822 16.9501 8.95309C16.7895 8.90795 16.6156 8.93184 16.4682 9.01681C15.8443 9.38587 15.5389 10.197 15.2801 10.9949L15.2695 11.0241C14.692 12.8017 14.5034 14.6032 14.7477 16.0927C14.7769 16.2719 14.8141 16.4591 14.8566 16.6423L14.8579 16.6436Z" fill="white"/>
</svg>
