<svg width="38" height="38" viewBox="0 0 38 38" fill="none" xmlns="http://www.w3.org/2000/svg">
<path d="M34.1129 26.7779C32.6964 25.3298 31.2487 23.9071 29.8024 22.4971C29.5005 22.1876 29.1357 21.9457 28.7324 21.7876C28.3291 21.6296 27.8966 21.559 27.4637 21.5806C26.4934 21.6229 25.737 22.1136 25.0712 22.7777C24.3563 23.4921 23.6396 24.206 22.9209 24.9195C22.8345 25.0055 22.7793 25.1155 22.6064 25.0182C22.122 24.7362 21.6149 24.4937 21.1375 24.1919C19.206 22.9348 17.4637 21.4109 15.9629 19.6658C14.9076 18.4659 13.9415 17.2054 13.2503 15.7517C13.1455 15.5317 13.1554 15.4161 13.3353 15.2483C14.2278 14.4379 15.0788 13.5833 15.885 12.6878C16.9417 11.4808 16.9559 9.7564 15.8779 8.57342C14.4614 7.02242 12.9627 5.55603 11.4414 4.11361C9.97527 2.72476 8.37176 2.68951 6.83342 3.97261C5.8036 4.83411 4.89702 5.82957 3.96353 6.7926C2.98896 7.80074 2.54701 9.03026 2.51584 10.4233C2.49816 11.8453 2.73117 13.2593 3.20428 14.6011C4.9296 19.7138 8.02046 23.9438 11.8451 27.6676C14.3891 30.1228 17.3091 32.1598 20.4958 33.7023C22.0993 34.4877 23.7538 35.1434 25.5131 35.4958C25.9381 35.579 26.3631 35.5889 26.7795 35.72H26.9708C27.0314 35.6942 27.0967 35.681 27.1627 35.681C27.2287 35.681 27.294 35.6942 27.3546 35.72H27.8037C27.8531 35.6943 27.908 35.6809 27.9637 35.6809C28.0195 35.6809 28.0744 35.6943 28.1238 35.72H28.3165C28.3448 35.6608 28.4043 35.6707 28.4581 35.6651C29.6459 35.5535 30.753 35.0176 31.5745 34.1564C32.3904 33.3104 33.2247 32.4926 34.042 31.655C35.5506 30.1195 35.5832 28.2894 34.1129 26.7779ZM32.9372 30.3931C32.0665 31.3256 31.1717 32.2364 30.2528 33.1257C29.5304 33.8306 28.6182 34.0844 27.366 34.0661C26.0826 34.0238 24.6151 33.6431 23.1985 33.0791C20.0662 31.8197 17.1592 30.0642 14.5903 27.8805C11.0877 24.9504 8.21195 21.35 6.13365 17.2928C5.32623 15.7052 4.67888 14.0498 4.33891 12.2972C4.13352 11.2411 4.05561 10.1738 4.43807 9.12896C4.5956 8.6997 4.84059 8.3075 5.15766 7.97699C6.06991 7.02242 6.98782 6.07209 7.96947 5.19084C8.67773 4.55211 9.47665 4.57185 10.1665 5.24301C11.6161 6.65301 13.0491 8.08086 14.4657 9.52657C15.1612 10.2316 15.1555 10.9817 14.4926 11.729C13.8566 12.458 13.1483 13.1235 12.44 13.7932C12.2545 13.9695 12.0618 14.1387 11.8734 14.3163C11.3068 14.8634 11.2232 15.3865 11.5405 16.1028C12.2913 17.7948 13.3707 19.2795 14.5818 20.6684C16.2095 22.5702 18.0978 24.2348 20.1913 25.6132C20.8228 26.0043 21.4743 26.3625 22.1432 26.6862C22.7594 27.0006 23.3062 26.8949 23.8048 26.4042C24.6023 25.6202 25.3899 24.8278 26.1846 24.0396C26.3135 23.9127 26.4452 23.7887 26.5855 23.6745C27.2682 23.1246 28.0275 23.133 28.6564 23.7478C30.0796 25.1399 31.4918 26.5429 32.8932 27.9566C33.7021 28.7688 33.7148 29.5654 32.9372 30.3931Z" fill="white"/>
</svg>
