<svg width="117" height="116" viewBox="0 0 117 116" fill="none" xmlns="http://www.w3.org/2000/svg">
<path d="M113.7 57.9998L104.039 70.2063L106.309 85.6065L91.8279 91.3321L86.1067 105.813L70.7065 103.543L58.5001 113.2L46.2936 103.543L30.8934 105.813L25.1722 91.3321L10.687 85.6065L12.9613 70.2063L3.30005 57.9998L12.9613 45.7978L10.687 30.3931L25.1722 24.6719L30.8934 10.1912L46.2936 12.461L58.5001 2.7998L70.7065 12.461L86.1067 10.1912L91.8279 24.6719L106.309 30.3931L104.039 45.7978L113.7 57.9998Z" stroke="#2B1F13" stroke-width="3.84" stroke-miterlimit="10"/>
<path d="M58.5007 89.6123C75.9603 89.6123 90.114 75.4586 90.114 57.999C90.114 40.5395 75.9603 26.3857 58.5007 26.3857C41.0412 26.3857 26.8875 40.5395 26.8875 57.999C26.8875 75.4586 41.0412 89.6123 58.5007 89.6123Z" stroke="#2B1F13" stroke-width="3.84" stroke-miterlimit="10"/>
<path d="M43.0339 56.7866L54.6096 68.3623L76.4462 47.6406" stroke="#2B1F13" stroke-width="3.84" stroke-miterlimit="10"/>
</svg>
