<svg width="50" height="50" viewBox="0 0 50 50" fill="none" xmlns="http://www.w3.org/2000/svg">
<path fill-rule="evenodd" clip-rule="evenodd" d="M6.17647 0C2.7653 0 0 2.7653 0 6.17647V43.8235C0 47.2347 2.7653 50 6.17647 50H43.8235C47.2347 50 50 47.2347 50 43.8235V6.17647C50 2.7653 47.2347 0 43.8235 0H6.17647ZM38.9952 10.1757C40.5299 9.50189 42.1709 10.8643 41.9039 12.5903L37.9508 38.1274C37.7105 39.6799 36.058 40.489 34.7733 39.6835L23.3197 32.5011C22.126 31.7526 21.929 30.0188 22.9214 28.9956L33.1514 18.4484C33.5176 18.0711 33.0505 17.4616 32.6219 17.7578L18.41 27.5764C17.3594 28.3021 16.0567 28.5004 14.8535 28.1172L8.55004 26.1098C7.4086 25.7464 7.32809 24.0792 8.42864 23.596L38.9952 10.1757Z" fill="white"/>
</svg>
