<svg width="113" height="116" viewBox="0 0 113 116" fill="none" xmlns="http://www.w3.org/2000/svg">
<path d="M75.7699 23.6881V100.804C75.7699 107.648 59.3274 113.2 39.042 113.2C18.7566 113.2 2.30975 107.644 2.30975 100.804V10.6463C2.28496 10.2834 2.30927 9.91873 2.38202 9.5623C3.75932 2.85435 21.2859 0.788397 41.5245 4.9458C47.5808 6.16063 53.5129 7.9279 59.2466 10.2254C69.2108 14.2978 75.6977 19.3479 75.7699 23.6881Z" stroke="#2B1F13" stroke-width="3.84" stroke-miterlimit="10"/>
<path d="M75.7699 23.6881V23.8624C75.7648 24.1125 75.7363 24.3615 75.6849 24.6063C74.3119 31.3228 56.7938 33.3887 36.5424 29.2313C17.375 25.2992 2.64983 17.1927 2.30975 10.6463C2.28496 10.2834 2.30927 9.91873 2.38202 9.5623C3.75932 2.85435 21.2859 0.788397 41.5245 4.9458C47.5808 6.16063 53.5129 7.9279 59.2466 10.2254C69.2108 14.2978 75.6977 19.3479 75.7699 23.6881Z" stroke="#2B1F13" stroke-width="3.84" stroke-miterlimit="10"/>
<path d="M99.7454 24.6689V102.618" stroke="#2B1F13" stroke-width="3.84" stroke-miterlimit="10"/>
<path d="M112.6 24.6689H86.8948" stroke="#2B1F13" stroke-width="3.84" stroke-miterlimit="10"/>
<path d="M112.6 102.619H86.8948" stroke="#2B1F13" stroke-width="3.84" stroke-miterlimit="10"/>
</svg>
